<?xml version="1.0" encoding="UTF-8"?>
<!DOCTYPE svg PUBLIC "-//W3C//DTD SVG 1.1//EN" "http://www.w3.org/Graphics/SVG/1.1/DTD/svg11.dtd">
<svg xmlns="http://www.w3.org/2000/svg" version="1.1" width="512px" height="512px" style="shape-rendering:geometricPrecision; text-rendering:geometricPrecision; image-rendering:optimizeQuality; fill-rule:evenodd; clip-rule:evenodd" xmlns:xlink="http://www.w3.org/1999/xlink">
<g><path style="opacity:0.995" fill="#e82b5a" d="M 92.5,34.5 C 128.366,36.1688 153.866,53.1688 169,85.5C 181.892,123.775 173.059,155.941 142.5,182C 108.396,204.263 74.7296,203.596 41.5,180C 13.7309,154.427 5.56421,123.593 17,87.5C 31.394,54.3938 56.5607,36.7271 92.5,34.5 Z"/></g>
<g><path style="opacity:0.995" fill="#e82c5a" d="M 277.5,34.5 C 313.179,35.7469 338.679,52.4136 354,84.5C 366.95,121.534 359.116,153.367 330.5,180C 297.27,203.596 263.604,204.263 229.5,182C 198.943,155.952 190.11,123.786 203,85.5C 217.725,53.7217 242.559,36.7217 277.5,34.5 Z"/></g>
<g><path style="opacity:0.999" fill="#e72c5a" d="M 39.5,220.5 C 137.167,220.333 234.834,220.5 332.5,221C 348.312,225.147 357.479,235.313 360,251.5C 360.667,315.833 360.667,380.167 360,444.5C 356.459,463.707 344.959,474.207 325.5,476C 232.5,476.667 139.5,476.667 46.5,476C 27.0405,474.207 15.5405,463.707 12,444.5C 11.3333,380.167 11.3333,315.833 12,251.5C 14.6911,235.314 23.8578,224.981 39.5,220.5 Z"/></g>
<g><path style="opacity:0.995" fill="#e82c5a" d="M 483.5,243.5 C 491.69,242.195 496.856,245.528 499,253.5C 499.667,316.833 499.667,380.167 499,443.5C 497.418,449.633 493.418,452.633 487,452.5C 483.871,452.671 481.037,451.838 478.5,450C 446.833,428.833 415.167,407.667 383.5,386.5C 382.334,361.173 382.167,335.84 383,310.5C 416.341,287.759 449.841,265.426 483.5,243.5 Z"/></g>
</svg>
